HIERARCHY
ROOT Hips
{
	OFFSET -3.958830 18.904000 13.208200
	CHANNELS 6 Xposition Yposition Zposition Zrotation Yrotation Xrotation 
	JOINT LHipJoint
	{
		OFFSET 0.000000 0.000000 0.000000
		CHANNELS 3 Zrotation Yrotation Xrotation
		JOINT LeftUpLeg
		{
			OFFSET 1.800000 -1.400000 0.085000
			CHANNELS 3 Zrotation Yrotation Xrotation
			JOINT LeftLeg
			{
				OFFSET 2.215000 -6.000000 0.000000
				CHANNELS 3 Zrotation Yrotation Xrotation
				JOINT LeftFoot
				{
					OFFSET 2.500000 -6.900000 0.000000
					CHANNELS 3 Zrotation Yrotation Xrotation
					JOINT LeftToeBase
					{
						OFFSET 0.200000 -0.500000 1.950000
						CHANNELS 3 Zrotation Yrotation Xrotation
						End Site
						{
							OFFSET 0.000000 0.000000 0.000000
						}
					}
				}
			}
		}
	}
	JOINT RHipJoint
	{
		OFFSET 0.000000 0.000000 0.000000
		CHANNELS 3 Zrotation Yrotation Xrotation
		JOINT RightUpLeg
		{
			OFFSET -1.800000 -1.400000 0.085000
			CHANNELS 3 Zrotation Yrotation Xrotation
			JOINT RightLeg
			{
				OFFSET -2.215000 -6.000000 0.000000
				CHANNELS 3 Zrotation Yrotation Xrotation
				JOINT RightFoot
				{
					OFFSET -2.500000 -6.900000 0.000000
					CHANNELS 3 Zrotation Yrotation Xrotation
					JOINT RightToeBase
					{
						OFFSET -0.200000 -0.500000 1.950000
						CHANNELS 3 Zrotation Yrotation Xrotation
						End Site
						{
							OFFSET 0.000000 0.000000 0.000000
						}
					}
				}
			}
		}
	}
	JOINT LowerBack
	{
		OFFSET 0.000000 0.000000 0.000000
		CHANNELS 3 Zrotation Yrotation Xrotation
		JOINT Spine
		{
			OFFSET -0.087000 1.940000 -0.288900
			CHANNELS 3 Zrotation Yrotation Xrotation
			JOINT Spine1
			{
				OFFSET 0.000000 1.950000 0.060000
				CHANNELS 3 Zrotation Yrotation Xrotation
				JOINT Neck
				{
					OFFSET 0.000000 0.000000 0.000000
					CHANNELS 3 Zrotation Yrotation Xrotation
					JOINT Neck1
					{
						OFFSET 0.000000 1.600000 0.340000
						CHANNELS 3 Zrotation Yrotation Xrotation
						JOINT Head
						{
							OFFSET 0.000000 1.667000 -0.240000
							CHANNELS 3 Zrotation Yrotation Xrotation
							End Site
							{
								OFFSET 0.000000 0.000000 0.000000
							}
						}
					}
				}
				JOINT LeftShoulder
				{
					OFFSET 0.000000 0.000000 0.000000
					CHANNELS 3 Zrotation Yrotation Xrotation
					JOINT LeftArm
					{
						OFFSET 2.700000 1.550000 -0.730000
						CHANNELS 3 Zrotation Yrotation Xrotation
						JOINT LeftForeArm
						{
							OFFSET 5.450000 0.000000 0.000000
							CHANNELS 3 Zrotation Yrotation Xrotation
							JOINT LeftHand
							{
								OFFSET 3.450000 0.000000 0.000000
								CHANNELS 3 Zrotation Yrotation Xrotation
								JOINT LeftHandIndex1
								{
									OFFSET 0.750000 0.000000 0.000000
									CHANNELS 3 Zrotation Yrotation Xrotation
									End Site
									{
										OFFSET 0.000000 0.000000 0.000000
									}
								}
							}
						}
					}
				}
				JOINT RightShoulder
				{
					OFFSET 0.000000 0.000000 0.000000
					CHANNELS 3 Zrotation Yrotation Xrotation
					JOINT RightArm
					{
						OFFSET -2.700000 1.550000 -0.730000
						CHANNELS 3 Zrotation Yrotation Xrotation
						JOINT RightForeArm
						{
							OFFSET -5.450000 0.000000 0.000000
							CHANNELS 3 Zrotation Yrotation Xrotation
							JOINT RightHand
							{
								OFFSET -3.450000 0.000000 0.000000
								CHANNELS 3 Zrotation Yrotation Xrotation
								JOINT RightHandIndex1
								{
									OFFSET -0.750000 0.000000 0.000000
									CHANNELS 3 Zrotation Yrotation Xrotation
									End Site
									{
										OFFSET 0.000000 0.000000 0.000000
									}
								}
							}
						}
					}
				}
			}
		}
	}
}
MOTION
Frames: 7
Frame Time: 0.016667
-2.274140 17.709650 1.209660 -5.382308 9.015817 -9.175770 -15.261461 12.657125 3.917204 19.194193 -7.431225 -25.581389 -7.114661 12.257521 44.803729 -0.446660 9.503101 1.157267 -0.355420 -0.263150 -0.701080 18.171578 -11.070738 2.081385 -12.558079 0.431086 -19.143166 6.496552 -12.551109 42.259193 -0.685616 -7.250321 1.856552 0.077640 1.158080 0.059280 -3.433411 -1.284205 -8.014887 -2.763603 1.781783 24.056851 -3.166904 4.744639 18.952718 -3.153875 4.715318 -13.660298 6.248582 -1.589482 40.683276 6.979060 -0.193020 -11.116830 1.154665 -33.891294 5.766480 -13.779963 -22.197012 -12.651310 38.317222 -41.369515 -18.335011 -4.085779 2.119919 0.644210 0.484070 -0.269830 0.167730 5.099175 30.907733 11.933137 63.233384 16.854764 0.726923 -6.527762 0.798534 0.640269 1.925443 -0.924244 -0.754890 1.025190 0.769710 0.077270 
-2.303420 17.735700 1.217060 -5.544700 8.948981 -9.629520 -15.249365 12.726482 3.820858 19.328525 -7.048835 -24.798324 -6.889520 12.063999 44.160919 -0.518057 9.428227 1.175667 -0.363660 -0.291520 -0.705890 18.171620 -11.113629 2.083299 -12.256677 0.496839 -18.297356 6.708511 -12.458711 41.652249 -0.671651 -7.192044 1.874840 0.083130 1.179970 0.069520 -3.451420 -1.268527 -7.954015 -2.773294 1.700716 23.893920 -4.052272 4.968223 19.637754 -2.707969 4.723602 -13.642943 6.332837 -1.227370 40.747697 7.162630 -0.078300 -11.210510 1.649003 -33.991262 5.793450 -13.938611 -22.549519 -12.296376 37.147682 -40.346780 -17.542969 -4.121576 2.121423 0.665090 0.496650 -0.282390 0.160830 3.716697 30.993896 12.028642 62.974954 17.487169 1.312441 -6.298287 0.284036 0.756863 1.909095 -0.913317 -0.781520 1.041950 0.798760 0.063290 
-2.348620 17.781670 1.224360 -5.877601 9.073976 -10.318167 -15.213629 12.832600 3.659516 19.432472 -6.463333 -23.692490 -6.178658 11.547172 43.132420 -0.566767 9.184187 1.257379 -0.339810 -0.285730 -0.688730 18.182797 -11.203341 2.111498 -11.753215 0.539389 -16.977972 7.202837 -12.386059 40.639573 -0.678861 -7.106706 1.893330 0.083150 1.175900 0.098430 -3.526919 -1.188099 -7.885200 -2.453193 1.314885 23.710368 -5.821719 5.127905 20.609603 -1.891256 4.627367 -13.925645 6.239361 -0.673462 41.307012 7.591150 -0.018700 -10.996790 2.018416 -34.354223 6.119399 -13.930559 -22.335625 -11.906006 34.674966 -39.203497 -16.042782 -4.123105 2.186055 0.673540 0.489870 -0.272270 0.167340 1.709173 31.311129 12.298051 62.063268 18.186214 2.260904 -5.887203 -0.626220 0.949766 1.930651 -0.932442 -0.764890 1.019140 0.791800 0.064940 
-2.394960 17.843340 1.235160 -5.934185 9.025138 -11.236170 -15.157052 13.013417 3.442320 19.107240 -5.736620 -21.916409 -5.334846 10.862979 41.645973 -0.662916 8.862760 1.359424 -0.350910 -0.320720 -0.698910 18.195368 -11.354618 2.131043 -11.377172 0.494843 -15.136415 7.334853 -11.988735 38.989039 -0.647324 -6.903445 1.953743 0.070000 1.189360 0.124320 -3.634535 -1.115854 -7.786578 -2.190970 0.784702 23.607484 -8.190814 5.396787 21.885334 -1.018438 4.222849 -14.446033 5.521534 0.303653 42.248585 8.234790 0.026540 -11.080840 2.285779 -34.774988 6.574006 -13.717372 -21.734872 -11.298991 31.532199 -37.177588 -14.064262 -4.156326 2.224234 0.704340 0.488270 -0.271430 0.152520 -0.313922 31.831396 12.731604 60.083880 18.739026 3.107025 -5.869710 -1.426941 1.128535 1.936684 -0.906326 -0.772780 1.015590 0.827130 0.059840 
-2.421820 17.908770 1.238830 -6.197042 8.701448 -12.134034 -15.064874 13.157080 3.191626 18.903115 -4.845114 -19.951526 -4.473970 10.150470 39.796344 -0.753283 8.471892 1.486763 -0.342860 -0.316530 -0.695250 18.250180 -11.523874 2.172130 -11.008343 0.474046 -13.492967 7.437947 -11.590649 37.417388 -0.618265 -6.725476 2.008072 0.079870 1.182680 0.137710 -3.848150 -0.938261 -7.673370 -0.693602 -0.145542 23.411977 -11.481473 5.583781 23.387380 0.279457 3.455960 -14.803106 3.973626 1.351052 42.599036 8.094580 -0.031650 -11.319520 2.449304 -34.627596 6.751272 -13.749675 -22.154424 -9.925191 28.586118 -32.947658 -11.750655 -4.217567 2.257795 0.706230 0.485350 -0.269240 0.139860 -3.071604 31.827128 13.014315 58.008799 19.010950 3.527713 -6.757079 -1.266044 1.067862 1.933615 -0.899471 -0.765920 1.009570 0.841360 0.059010 
-2.448910 17.959160 1.243470 -6.105499 8.341805 -12.600352 -14.996413 13.298449 2.993384 18.486482 -4.041852 -18.314166 -3.887229 9.587700 37.872190 -0.806894 8.114791 1.628156 -0.370110 -0.357750 -0.717650 18.287785 -11.637604 2.208799 -10.833705 0.485498 -12.376673 7.423336 -11.174658 35.959337 -0.572060 -6.550793 2.077018 0.053890 1.204440 0.155360 -3.999876 -0.875711 -7.571711 0.409009 -1.038933 23.074087 -14.787848 5.660952 24.261935 1.617722 2.641193 -15.323827 2.207876 2.462342 42.652453 7.940430 -0.213460 -10.887870 2.329548 -33.796276 6.904884 -14.402872 -22.400467 -8.440589 26.448930 -28.882218 -10.006519 -4.295200 2.267573 0.698990 0.499350 -0.282700 0.130790 -5.668133 31.236206 13.210780 55.866437 18.532165 3.028907 -9.278604 -0.285925 0.757822 1.922481 -0.903215 -0.762260 1.001330 0.865740 0.068050 
-2.467220 18.015000 1.242720 -5.913453 7.990124 -12.973255 -14.914636 13.424026 2.831359 17.897330 -3.381919 -16.744527 -3.427030 9.044883 35.912014 -0.847568 7.733091 1.780923 -0.396420 -0.404030 -0.718720 18.334232 -11.764773 2.245183 -10.772101 0.425113 -11.504173 7.211373 -10.770676 34.705957 -0.537049 -6.369448 2.142949 0.014810 1.193920 0.156420 -4.184875 -0.786408 -7.496046 1.701529 -2.263390 22.966938 -18.570657 5.492435 24.654360 3.182639 1.819317 -16.137004 0.355072 3.658404 43.324653 7.703800 -0.168160 -10.506330 1.900745 -32.585158 7.053659 -14.936823 -21.793964 -7.211882 24.168689 -25.792063 -8.487339 -4.328087 2.261046 0.712130 0.486080 -0.280740 0.113560 -8.397539 30.422254 13.386588 52.755378 17.759495 2.816099 -9.543570 1.165951 0.538192 1.924046 -0.858841 -0.759960 0.985300 0.877480 0.063370 
